# Blender 5.0.1
# www.blender.org
mtllib B2.mtl
o plank_car.B2
v -77.482452 -3.854752 -119.856651
v -78.313347 -4.261038 -119.561699
v -77.530937 -3.904191 -120.184845
v -78.393234 -4.342497 -120.102440
v -77.492043 -3.959356 -120.513412
v -78.329155 -4.433386 -120.643784
v -77.368431 -4.016481 -120.819931
v -78.125481 -4.527510 -121.148834
v -77.168518 -4.071679 -121.083549
v -77.796097 -4.618456 -121.583183
v -76.905930 -4.121185 -121.286285
v -77.363441 -4.700026 -121.917221
v -76.598564 -4.161626 -121.414307
v -76.857010 -4.766659 -122.128174
v -76.267357 -4.190247 -121.458923
v -76.311302 -4.813817 -122.201683
v -75.934898 -4.205096 -121.417076
v -75.763519 -4.838284 -122.132736
v -75.623833 -4.205165 -121.291634
v -75.250992 -4.838395 -121.926025
v -75.355354 -4.190444 -121.091110
v -74.808632 -4.814140 -121.595642
v -75.147766 -4.161939 -120.829193
v -74.466606 -4.767173 -121.164101
v -75.015213 -4.121591 -120.523727
v -74.248199 -4.700695 -120.660805
v -74.966728 -4.072151 -120.195541
v -74.168320 -4.619235 -120.120064
v -75.005623 -4.016989 -119.866989
v -74.232399 -4.528347 -119.578720
v -75.129234 -3.959861 -119.560448
v -74.436073 -4.434223 -119.073669
v -75.329147 -3.904665 -119.296844
v -74.765457 -4.343276 -118.639320
v -75.591736 -3.855159 -119.094116
v -75.198112 -4.261706 -118.305290
v -75.899109 -3.814717 -118.966072
v -75.704544 -4.195073 -118.094330
v -76.230309 -3.786096 -118.921463
v -76.250252 -4.147915 -118.020821
v -76.562767 -3.771246 -118.963310
v -76.798035 -4.123447 -118.089767
v -76.873840 -3.771179 -119.088768
v -77.310562 -4.123337 -118.296478
v -77.142311 -3.785899 -119.289276
v -77.752922 -4.147592 -118.626862
v -77.349899 -3.814404 -119.551186
v -78.094948 -4.194559 -119.058403
v -74.456001 -7.977210 -119.026138
v -74.391922 -8.068098 -119.567482
v -74.471802 -8.149558 -120.108231
v -74.690201 -8.216037 -120.611526
v -75.032234 -8.263003 -121.043068
v -75.474594 -8.287258 -121.373451
v -75.987122 -8.287148 -121.580154
v -76.534904 -8.262680 -121.649109
v -77.080612 -8.215523 -121.575600
v -77.587044 -8.148890 -121.364639
v -78.019699 -8.067319 -121.030602
v -78.349075 -7.976374 -120.596260
v -78.552757 -7.882249 -120.091209
v -78.616837 -7.791361 -119.549866
v -78.536949 -7.709901 -119.009117
v -78.318550 -7.643423 -118.505821
v -77.976524 -7.596456 -118.074280
v -77.534164 -7.572201 -117.743896
v -77.021637 -7.572311 -117.537193
v -76.473854 -7.596779 -117.468239
v -75.928146 -7.643936 -117.541748
v -75.421715 -7.710570 -117.752708
v -74.989059 -7.792140 -118.086746
v -74.659676 -7.883086 -118.521088
v -77.418633 -8.649561 -124.421379
v -77.163086 -4.708002 -125.052902
v -76.576477 -8.716104 -124.495926
v -76.320938 -4.774545 -125.127441
v -75.732254 -8.760023 -124.428421
v -75.476707 -4.818464 -125.059944
v -74.910233 -8.780055 -124.220825
v -74.654694 -4.838496 -124.852341
v -74.134087 -8.775626 -123.879112
v -73.878540 -4.834067 -124.510628
v -73.426117 -8.746861 -123.413101
v -73.170570 -4.805303 -124.044617
v -72.806709 -8.694591 -122.836212
v -72.551163 -4.753032 -123.467728
v -72.293678 -8.620316 -122.165031
v -72.038132 -4.678757 -122.796547
v -71.901779 -8.526175 -121.418877
v -71.646233 -4.584615 -122.050392
v -71.642288 -8.414873 -120.619194
v -71.386742 -4.473315 -121.250717
v -71.522667 -8.289616 -119.789009
v -71.267120 -4.348057 -120.420525
v -71.546364 -8.154005 -118.952194
v -71.290825 -4.212446 -119.583717
v -71.712700 -8.011943 -118.132835
v -71.457153 -4.070384 -118.764359
v -72.016876 -7.867515 -117.354485
v -71.761330 -3.925956 -117.986008
v -72.450150 -7.724878 -116.639557
v -72.194603 -3.783319 -117.271080
v -73.000061 -7.588132 -116.008598
v -72.744514 -3.646574 -116.640114
v -73.650780 -7.461215 -115.479774
v -73.395233 -3.519657 -116.111290
v -74.383598 -7.347775 -115.068283
v -74.128052 -3.406217 -115.699806
v -75.177414 -7.251078 -114.785980
v -74.921875 -3.309520 -115.417496
v -76.009415 -7.173905 -114.640984
v -75.753868 -3.232347 -115.272499
v -76.855659 -7.118474 -114.637451
v -76.600113 -3.176916 -115.268967
v -77.691788 -7.086384 -114.775497
v -77.436241 -3.144825 -115.407013
v -78.493759 -7.078552 -115.051140
v -78.238220 -3.136994 -115.682663
v -79.238503 -7.095210 -115.456467
v -78.982964 -3.153651 -116.087990
v -79.904594 -7.135875 -115.979805
v -79.649048 -3.194316 -116.611328
v -80.472862 -7.199375 -116.606094
v -80.217316 -3.257817 -117.237610
v -80.926964 -7.283889 -117.317329
v -80.671417 -3.342330 -117.948845
v -81.253838 -7.386982 -118.093048
v -80.998291 -3.445424 -118.724564
v -81.444069 -7.505687 -118.910912
v -81.188530 -3.564129 -119.542427
v -81.492210 -7.636594 -119.747429
v -81.236664 -3.695036 -120.378952
v -81.396851 -7.775933 -120.578514
v -81.141304 -3.834375 -121.210030
v -81.160744 -7.919694 -121.380249
v -80.905197 -3.978136 -122.011765
v -80.790688 -8.063747 -122.129593
v -80.535141 -4.122189 -122.761108
v -80.297318 -8.203943 -122.804970
v -80.041771 -4.262384 -123.436485
v -79.694832 -8.336250 -123.386955
v -79.439285 -4.394692 -124.018478
v -79.000565 -8.456864 -123.858818
v -78.745018 -4.515306 -124.490334
v -78.234482 -8.562311 -124.206955
v -77.978935 -4.620752 -124.838478
vn 0.4571 -0.8869 0.0661
vn 0.4591 -0.8656 0.1997
vn 0.4591 -0.8657 0.1997
vn 0.4260 -0.8428 0.3289
vn 0.3602 -0.8200 0.4448
vn 0.3602 -0.8200 0.4449
vn 0.2661 -0.7987 0.5397
vn 0.1502 -0.7803 0.6071
vn 0.1502 -0.7804 0.6070
vn 0.0203 -0.7663 0.6421
vn -0.1147 -0.7575 0.6427
vn -0.2456 -0.7544 0.6087
vn -0.2457 -0.7544 0.6087
vn -0.3636 -0.7574 0.5424
vn -0.3635 -0.7574 0.5424
vn -0.4604 -0.7662 0.4483
vn -0.5296 -0.7802 0.3329
vn -0.5664 -0.7985 0.2039
vn -0.5664 -0.7985 0.2040
vn -0.5684 -0.8198 0.0703
vn -0.5684 -0.8198 0.0704
vn -0.5353 -0.8426 -0.0588
vn -0.4695 -0.8655 -0.1748
vn -0.3754 -0.8868 -0.2697
vn -0.2595 -0.9051 -0.3370
vn -0.1295 -0.9191 -0.3721
vn 0.0055 -0.9279 -0.3727
vn 0.1364 -0.9310 -0.3386
vn 0.2543 -0.9280 -0.2723
vn 0.3511 -0.9192 -0.1782
vn 0.3511 -0.9192 -0.1783
vn 0.4203 -0.9052 -0.0628
vn -0.9912 0.0443 -0.1247
vn -0.9912 0.0443 -0.1248
vn -0.9874 0.0853 0.1330
vn -0.9164 0.1206 0.3817
vn -0.7829 0.1476 0.6044
vn -0.5960 0.1646 0.7859
vn -0.3685 0.1703 0.9139
vn -0.1160 0.1645 0.9795
vn -0.1159 0.1645 0.9795
vn 0.1445 0.1474 0.9785
vn 0.3952 0.1203 0.9107
vn 0.6189 0.0850 0.7809
vn 0.8004 0.0439 0.5978
vn 0.9274 -0.0002 0.3741
vn 0.9274 -0.0002 0.3740
vn 0.9912 -0.0443 0.1248
vn 0.9874 -0.0853 -0.1330
vn 0.9164 -0.1206 -0.3817
vn 0.7829 -0.1476 -0.6044
vn 0.5960 -0.1646 -0.7859
vn 0.3685 -0.1703 -0.9139
vn 0.1160 -0.1645 -0.9795
vn 0.1159 -0.1645 -0.9795
vn -0.1445 -0.1474 -0.9785
vn -0.3952 -0.1203 -0.9107
vn -0.6189 -0.0850 -0.7809
vn -0.8004 -0.0439 -0.5978
vn -0.9274 0.0002 -0.3740
vn -0.9274 0.0002 -0.3741
vn -0.0990 -0.1512 -0.9835
vn 0.0703 -0.1623 -0.9842
vn 0.0703 -0.1622 -0.9842
vn 0.2375 -0.1687 -0.9566
vn 0.3979 -0.1702 -0.9015
vn 0.5468 -0.1669 -0.8204
vn 0.6800 -0.1588 -0.7158
vn 0.7937 -0.1461 -0.5905
vn 0.8845 -0.1292 -0.4483
vn 0.9499 -0.1085 -0.2931
vn 0.9499 -0.1086 -0.2931
vn 0.9879 -0.0848 -0.1295
vn 0.9976 -0.0586 0.0377
vn 0.9976 -0.0586 0.0378
vn 0.9785 -0.0308 0.2040
vn 0.9313 -0.0020 0.3643
vn 0.8572 0.0268 0.5142
vn 0.8573 0.0268 0.5142
vn 0.7586 0.0548 0.6493
vn 0.7586 0.0548 0.6492
vn 0.6381 0.0813 0.7657
vn 0.4992 0.1054 0.8600
vn 0.3460 0.1265 0.9297
vn 0.1828 0.1440 0.9725
vn 0.0144 0.1573 0.9875
vn 0.0144 0.1573 0.9874
vn -0.1544 0.1661 0.9739
vn -0.3188 0.1701 0.9324
vn -0.4741 0.1692 0.8641
vn -0.6157 0.1634 0.7709
vn -0.7395 0.1530 0.6555
vn -0.8421 0.1381 0.5213
vn -0.9205 0.1193 0.3720
vn -0.9724 0.0970 0.2121
vn -0.9963 0.0720 0.0461
vn -0.9916 0.0449 -0.1213
vn -0.9583 0.0164 -0.2852
vn -0.9583 0.0164 -0.2851
vn -0.8975 -0.0124 -0.4408
vn -0.8108 -0.0410 -0.5838
vn -0.7009 -0.0683 -0.7100
vn -0.5707 -0.0937 -0.8158
vn -0.4241 -0.1164 -0.8981
vn -0.4242 -0.1164 -0.8981
vn -0.2654 -0.1357 -0.9545
vn -0.0639 -0.9854 0.1579
vn 0.0639 0.9854 -0.1579
s 0
f 1//1 2//1 3//1
f 3//1 2//1 4//1
f 3//2 4//2 5//2
f 5//3 4//3 6//3
f 5//4 6//4 7//4
f 7//4 6//4 8//4
f 7//5 8//5 9//5
f 9//6 8//6 10//6
f 9//7 10//7 11//7
f 11//7 10//7 12//7
f 11//8 12//8 13//8
f 13//9 12//9 14//9
f 13//10 14//10 15//10
f 15//10 14//10 16//10
f 15//11 16//11 17//11
f 17//11 16//11 18//11
f 17//12 18//12 19//12
f 19//13 18//13 20//13
f 19//14 20//14 21//14
f 21//15 20//15 22//15
f 21//16 22//16 23//16
f 23//16 22//16 24//16
f 23//17 24//17 25//17
f 25//17 24//17 26//17
f 25//18 26//18 27//18
f 27//19 26//19 28//19
f 27//20 28//20 29//20
f 29//21 28//21 30//21
f 29//22 30//22 31//22
f 31//22 30//22 32//22
f 31//23 32//23 33//23
f 33//23 32//23 34//23
f 33//24 34//24 35//24
f 35//24 34//24 36//24
f 35//25 36//25 37//25
f 37//25 36//25 38//25
f 37//26 38//26 39//26
f 39//26 38//26 40//26
f 39//27 40//27 41//27
f 41//27 40//27 42//27
f 41//28 42//28 43//28
f 43//28 42//28 44//28
f 43//29 44//29 45//29
f 45//29 44//29 46//29
f 45//30 46//30 47//30
f 47//31 46//31 48//31
f 47//32 48//32 1//32
f 1//32 48//32 2//32
f 49//33 30//33 50//33
f 50//34 30//34 28//34
f 50//35 28//35 51//35
f 51//35 28//35 26//35
f 51//36 26//36 52//36
f 52//36 26//36 24//36
f 52//37 24//37 53//37
f 53//37 24//37 22//37
f 53//38 22//38 54//38
f 54//38 22//38 20//38
f 54//39 20//39 55//39
f 55//39 20//39 18//39
f 55//40 18//40 56//40
f 56//41 18//41 16//41
f 56//42 16//42 57//42
f 57//42 16//42 14//42
f 57//43 14//43 58//43
f 58//43 14//43 12//43
f 58//44 12//44 59//44
f 59//44 12//44 10//44
f 59//45 10//45 60//45
f 60//45 10//45 8//45
f 60//46 8//46 61//46
f 61//47 8//47 6//47
f 61//48 6//48 62//48
f 62//48 6//48 4//48
f 62//49 4//49 63//49
f 63//49 4//49 2//49
f 63//50 2//50 64//50
f 64//50 2//50 48//50
f 64//51 48//51 65//51
f 65//51 48//51 46//51
f 65//52 46//52 66//52
f 66//52 46//52 44//52
f 66//53 44//53 67//53
f 67//53 44//53 42//53
f 67//54 42//54 68//54
f 68//55 42//55 40//55
f 68//56 40//56 69//56
f 69//56 40//56 38//56
f 69//57 38//57 70//57
f 70//57 38//57 36//57
f 70//58 36//58 71//58
f 71//58 36//58 34//58
f 71//59 34//59 72//59
f 72//59 34//59 32//59
f 72//60 32//60 49//60
f 49//61 32//61 30//61
f 73//62 74//62 75//62
f 75//62 74//62 76//62
f 75//63 76//63 77//63
f 77//64 76//64 78//64
f 77//65 78//65 79//65
f 79//65 78//65 80//65
f 79//66 80//66 81//66
f 81//66 80//66 82//66
f 81//67 82//67 83//67
f 83//67 82//67 84//67
f 83//68 84//68 85//68
f 85//68 84//68 86//68
f 85//69 86//69 87//69
f 87//69 86//69 88//69
f 87//70 88//70 89//70
f 89//70 88//70 90//70
f 89//71 90//71 91//71
f 91//72 90//72 92//72
f 91//73 92//73 93//73
f 93//73 92//73 94//73
f 93//74 94//74 95//74
f 95//75 94//75 96//75
f 95//76 96//76 97//76
f 97//76 96//76 98//76
f 97//77 98//77 99//77
f 99//77 98//77 100//77
f 99//78 100//78 101//78
f 101//79 100//79 102//79
f 101//80 102//80 103//80
f 103//81 102//81 104//81
f 103//82 104//82 105//82
f 105//82 104//82 106//82
f 105//83 106//83 107//83
f 107//83 106//83 108//83
f 107//84 108//84 109//84
f 109//84 108//84 110//84
f 109//85 110//85 111//85
f 111//85 110//85 112//85
f 111//86 112//86 113//86
f 113//87 112//87 114//87
f 113//88 114//88 115//88
f 115//88 114//88 116//88
f 115//89 116//89 117//89
f 117//89 116//89 118//89
f 117//90 118//90 119//90
f 119//90 118//90 120//90
f 119//91 120//91 121//91
f 121//91 120//91 122//91
f 121//92 122//92 123//92
f 123//92 122//92 124//92
f 123//93 124//93 125//93
f 125//93 124//93 126//93
f 125//94 126//94 127//94
f 127//94 126//94 128//94
f 127//95 128//95 129//95
f 129//95 128//95 130//95
f 129//96 130//96 131//96
f 131//96 130//96 132//96
f 131//97 132//97 133//97
f 133//97 132//97 134//97
f 133//98 134//98 135//98
f 135//99 134//99 136//99
f 135//100 136//100 137//100
f 137//100 136//100 138//100
f 137//101 138//101 139//101
f 139//101 138//101 140//101
f 139//102 140//102 141//102
f 141//102 140//102 142//102
f 141//103 142//103 143//103
f 143//103 142//103 144//103
f 143//104 144//104 145//104
f 145//105 144//105 146//105
f 145//106 146//106 73//106
f 73//106 146//106 74//106
f 51//107 91//107 50//107
f 50//107 91//107 93//107
f 50//107 93//107 95//107
f 91//107 51//107 89//107
f 89//107 51//107 52//107
f 89//107 52//107 87//107
f 87//107 52//107 85//107
f 85//107 52//107 53//107
f 85//107 53//107 83//107
f 83//107 53//107 54//107
f 83//107 54//107 81//107
f 81//107 54//107 79//107
f 79//107 54//107 55//107
f 79//107 55//107 77//107
f 77//107 55//107 56//107
f 77//107 56//107 75//107
f 75//107 56//107 73//107
f 73//107 56//107 57//107
f 73//107 57//107 145//107
f 145//107 57//107 58//107
f 145//107 58//107 143//107
f 143//107 58//107 141//107
f 141//107 58//107 59//107
f 141//107 59//107 139//107
f 139//107 59//107 60//107
f 139//107 60//107 137//107
f 137//107 60//107 135//107
f 135//107 60//107 61//107
f 135//107 61//107 133//107
f 133//107 61//107 62//107
f 133//107 62//107 131//107
f 131//107 62//107 129//107
f 129//107 62//107 63//107
f 129//107 63//107 127//107
f 127//107 63//107 125//107
f 125//107 63//107 64//107
f 125//107 64//107 123//107
f 123//107 64//107 65//107
f 123//107 65//107 121//107
f 121//107 65//107 119//107
f 119//107 65//107 66//107
f 119//107 66//107 117//107
f 117//107 66//107 67//107
f 117//107 67//107 115//107
f 115//107 67//107 113//107
f 113//107 67//107 68//107
f 113//107 68//107 111//107
f 111//107 68//107 69//107
f 111//107 69//107 109//107
f 109//107 69//107 107//107
f 107//107 69//107 70//107
f 107//107 70//107 105//107
f 105//107 70//107 71//107
f 105//107 71//107 103//107
f 103//107 71//107 101//107
f 101//107 71//107 72//107
f 101//107 72//107 99//107
f 99//107 72//107 49//107
f 99//107 49//107 97//107
f 97//107 49//107 95//107
f 95//107 49//107 50//107
f 5//108 134//108 3//108
f 3//108 134//108 132//108
f 3//108 132//108 130//108
f 134//108 5//108 136//108
f 136//108 5//108 7//108
f 136//108 7//108 138//108
f 138//108 7//108 140//108
f 140//108 7//108 9//108
f 140//108 9//108 142//108
f 142//108 9//108 11//108
f 142//108 11//108 144//108
f 144//108 11//108 146//108
f 146//108 11//108 13//108
f 146//108 13//108 74//108
f 74//108 13//108 15//108
f 74//108 15//108 76//108
f 76//108 15//108 78//108
f 78//108 15//108 17//108
f 78//108 17//108 80//108
f 80//108 17//108 19//108
f 80//108 19//108 82//108
f 82//108 19//108 84//108
f 84//108 19//108 21//108
f 84//108 21//108 86//108
f 86//108 21//108 23//108
f 86//108 23//108 88//108
f 88//108 23//108 90//108
f 90//108 23//108 25//108
f 90//108 25//108 92//108
f 92//108 25//108 27//108
f 92//108 27//108 94//108
f 94//108 27//108 96//108
f 96//108 27//108 29//108
f 96//108 29//108 98//108
f 98//108 29//108 100//108
f 100//108 29//108 31//108
f 100//108 31//108 102//108
f 102//108 31//108 33//108
f 102//108 33//108 104//108
f 104//108 33//108 106//108
f 106//108 33//108 35//108
f 106//108 35//108 108//108
f 108//108 35//108 37//108
f 108//108 37//108 110//108
f 110//108 37//108 112//108
f 112//108 37//108 39//108
f 112//108 39//108 114//108
f 114//108 39//108 41//108
f 114//108 41//108 116//108
f 116//108 41//108 118//108
f 118//108 41//108 43//108
f 118//108 43//108 120//108
f 120//108 43//108 45//108
f 120//108 45//108 122//108
f 122//108 45//108 124//108
f 124//108 45//108 47//108
f 124//108 47//108 126//108
f 126//108 47//108 1//108
f 126//108 1//108 128//108
f 128//108 1//108 130//108
f 130//108 1//108 3//108
