# Blender 5.0.1
# www.blender.org
mtllib wheel4.mtl
o plank_car.wheel4
v 5.432814 -51.015656 -205.787018
v 6.071676 -41.161762 -207.365814
v 6.078098 -51.064716 -205.832108
v 6.716960 -41.210819 -207.410904
v 6.697087 -51.133904 -206.013474
v 7.335949 -41.280010 -207.592270
v 7.260828 -51.219997 -206.322693
v 7.899691 -41.366100 -207.901489
v 7.742971 -51.318962 -206.745270
v 8.381833 -41.465065 -208.324051
v 8.120970 -51.426174 -207.261459
v 8.759832 -41.572277 -208.840256
v 8.377142 -51.536617 -207.847137
v 9.016005 -41.682724 -209.425919
v 8.499522 -51.645130 -208.474884
v 9.138384 -41.791237 -210.053680
v 8.482377 -51.746639 -209.115372
v 9.121239 -41.892746 -210.694168
v 8.326509 -51.836395 -209.738663
v 8.965372 -41.982502 -211.317444
v 8.039211 -51.910206 -210.315582
v 8.678073 -42.056313 -211.894379
v 7.633918 -51.964615 -210.819168
v 8.272779 -42.110718 -212.397964
v 7.129576 -51.997082 -211.225891
v 7.768437 -42.143185 -212.804688
v 6.549767 -52.006084 -211.516708
v 7.188629 -42.152191 -213.095505
v 5.921608 -51.991207 -211.678024
v 6.560471 -42.137310 -213.256821
v 5.274467 -51.953140 -211.702301
v 5.913329 -42.099243 -213.281097
v 4.638607 -51.893665 -211.588409
v 5.277469 -42.039772 -213.167206
v 4.043753 -51.815567 -211.341675
v 4.682614 -41.961674 -212.920471
v 3.517725 -51.722496 -210.973618
v 4.156588 -41.868599 -212.552414
v 3.085121 -51.618797 -210.501465
v 3.723983 -41.764900 -212.080261
v 2.766167 -51.509327 -209.947281
v 3.405029 -41.655430 -211.526077
v 2.575773 -51.399204 -209.337006
v 3.214635 -41.545307 -210.915802
v 2.522848 -51.293571 -208.699127
v 3.161710 -41.439678 -210.277924
v 2.609863 -51.197372 -208.063507
v 3.248725 -41.343479 -209.642303
v 2.832754 -51.115108 -207.459869
v 3.471616 -41.261215 -209.038666
v 3.181089 -51.050625 -206.916443
v 3.819951 -41.196728 -208.495224
v 3.638589 -51.006927 -206.458588
v 4.277451 -41.153034 -208.037384
v 4.183862 -50.986073 -206.107773
v 4.822724 -41.132179 -207.686569
v 4.791405 -50.989029 -205.880371
v 5.430267 -41.135132 -207.459167
v 10.936554 -48.792862 -189.686569
v 11.575417 -38.938965 -191.265366
v 9.265200 -48.624611 -189.312775
v 9.904061 -38.770718 -190.891571
v 7.566084 -48.477615 -189.082855
v 8.204947 -38.623722 -190.661652
v 5.851790 -48.352962 -188.998535
v 6.490652 -38.499069 -190.577332
v 4.135002 -48.251572 -189.060425
v 4.773865 -38.397678 -190.639221
v 2.428442 -48.174198 -189.268066
v 3.067304 -38.320305 -190.846863
v 0.744736 -48.121414 -189.619934
v 1.383598 -38.267517 -191.198730
v -0.903648 -48.093609 -190.113403
v -0.264786 -38.239716 -191.692200
v -2.504504 -48.090988 -190.744843
v -1.865643 -38.237091 -192.323639
v -4.045982 -48.113571 -191.509552
v -3.407120 -38.259678 -193.088348
v -5.516672 -48.161194 -192.401901
v -4.877810 -38.307301 -193.980698
v -6.905680 -48.233498 -193.415253
v -6.266817 -38.379604 -194.994049
v -8.202724 -48.329956 -194.542130
v -7.563863 -38.476059 -196.120911
v -9.398204 -48.449844 -195.774170
v -8.759341 -38.595951 -197.352966
v -10.483265 -48.592285 -197.102249
v -9.844402 -38.738388 -198.681046
v -11.449875 -48.756214 -198.516541
v -10.811012 -38.902321 -200.095337
v -12.290878 -48.940426 -200.006607
v -11.652016 -39.086533 -201.585403
v -13.000048 -49.143551 -201.561356
v -12.361185 -39.289658 -203.140152
v -13.572136 -49.364090 -203.169327
v -12.933273 -39.510197 -204.748123
v -14.002903 -49.600407 -204.818573
v -13.364040 -39.746513 -206.397369
v -14.289164 -49.850754 -206.496918
v -13.650301 -39.996857 -208.075714
v -14.428793 -50.113274 -208.191925
v -13.789930 -40.259380 -209.770721
v -14.420761 -50.386028 -209.891052
v -13.781898 -40.532135 -211.469849
v -14.265129 -50.666996 -211.581711
v -13.626266 -40.813103 -213.160507
v -13.963043 -50.954094 -213.251358
v -13.324181 -41.100201 -214.830154
v -13.516745 -51.245201 -214.887680
v -12.877882 -41.391304 -216.466461
v -12.929539 -51.538162 -216.478531
v -12.290676 -41.684265 -218.057327
v -12.205772 -51.830803 -218.012161
v -11.566910 -41.976906 -219.590958
v -11.350798 -52.120956 -219.477173
v -10.711937 -42.267063 -221.055969
v -10.370953 -52.406483 -220.862747
v -9.732091 -42.552589 -222.441544
v -9.273490 -52.685265 -222.158646
v -8.634628 -42.831367 -223.737442
v -8.066530 -52.955231 -223.355225
v -7.427668 -43.101337 -224.934021
v -6.759012 -53.214394 -224.443665
v -6.120152 -43.360497 -226.022461
v -5.360620 -53.460827 -225.415909
v -4.721757 -43.606934 -226.994705
v -3.881705 -53.692711 -226.264725
v -3.242844 -43.838814 -227.843521
v -2.333207 -53.908321 -226.983841
v -1.694345 -44.054424 -228.562637
v -0.726607 -54.106071 -227.567947
v -0.087745 -44.252174 -229.146744
v 0.926212 -54.284489 -228.012726
v 1.565074 -44.430592 -229.591507
v 2.613007 -54.442257 -228.314850
v 3.251869 -44.588360 -229.893646
v 4.321295 -54.578209 -228.472107
v 4.960156 -44.724312 -230.050903
v 6.038429 -54.691330 -228.483337
v 6.677292 -44.837437 -230.062134
v 7.751687 -54.780796 -228.348450
v 8.390549 -44.926903 -229.927246
v 9.448393 -54.845936 -228.068436
v 10.087255 -44.992043 -229.647232
v 11.115982 -54.886269 -227.645355
v 11.754843 -45.032372 -229.224152
v 12.742107 -54.901493 -227.082382
v 13.380970 -45.047600 -228.661179
v 14.314732 -54.891502 -226.383667
v 14.953593 -45.037609 -227.962463
v 15.822212 -54.856369 -225.554367
v 16.461075 -45.002472 -227.133163
v 17.253384 -54.796349 -224.600632
v 17.892246 -44.942455 -226.179428
v 18.597652 -54.711891 -223.529541
v 19.236515 -44.857998 -225.108337
v 19.845070 -54.603619 -222.348999
v 20.483932 -44.749722 -223.927780
v 20.986397 -54.472328 -221.067734
v 21.625259 -44.618435 -222.646530
v 22.013182 -54.319004 -219.695282
v 22.652044 -44.465111 -221.274078
v 22.917828 -54.144775 -218.241760
v 23.556690 -44.290878 -219.820557
v 23.693638 -53.950924 -216.717941
v 24.332500 -44.097031 -218.296738
v 24.334856 -53.738895 -215.135117
v 24.973719 -43.885002 -216.713913
v 24.836748 -53.510258 -213.505005
v 25.475611 -43.656361 -215.083786
v 25.195591 -53.266701 -211.839661
v 25.834454 -43.412804 -213.418457
v 25.408737 -53.010029 -210.151428
v 26.047600 -43.156136 -211.730209
v 25.474596 -52.742142 -208.452774
v 26.113459 -42.888245 -210.031570
v 25.392687 -52.465027 -206.756332
v 26.031549 -42.611130 -208.335129
v 25.163614 -52.180729 -205.074600
v 25.802477 -42.326836 -206.653397
v 24.789076 -51.891357 -203.420090
v 25.427938 -42.037464 -204.998886
v 24.271847 -51.599056 -201.805008
v 24.910709 -41.745159 -203.383804
v 23.615753 -51.305984 -200.241318
v 24.254616 -41.452087 -201.820114
v 22.825651 -51.014313 -198.740601
v 23.464512 -41.160419 -200.319397
v 21.907391 -50.726208 -197.313995
v 22.546251 -40.872314 -198.892792
v 20.867775 -50.443794 -195.972015
v 21.506636 -40.589897 -197.550797
v 19.714493 -50.169163 -194.724625
v 20.353355 -40.315269 -196.303421
v 18.456093 -49.904354 -193.581039
v 19.094955 -40.050461 -195.159836
v 17.101883 -49.651321 -192.549759
v 17.740746 -39.797428 -194.128555
v 15.661895 -49.411945 -191.638397
v 16.300758 -39.558048 -193.217194
v 14.146788 -49.187988 -190.853699
v 14.785649 -39.334095 -192.432495
v 12.567776 -48.981117 -190.201477
v 13.206637 -39.127224 -191.780273
vn -0.0804 -0.1526 -0.9850
vn -0.2923 -0.1328 -0.9471
vn -0.4907 -0.1067 -0.8648
vn -0.6660 -0.0757 -0.7421
vn -0.8102 -0.0412 -0.5847
vn -0.9165 -0.0047 -0.4000
vn -0.9800 0.0320 -0.1966
vn -0.9976 0.0672 0.0160
vn -0.9976 0.0673 0.0160
vn -0.9686 0.0993 0.2279
vn -0.8943 0.1267 0.4291
vn -0.7782 0.1482 0.6103
vn -0.6257 0.1628 0.7629
vn -0.4439 0.1698 0.8798
vn -0.2414 0.1688 0.9556
vn -0.0276 0.1599 0.9867
vn 0.1875 0.1435 0.9717
vn 0.3938 0.1205 0.9113
vn 0.5817 0.0918 0.8082
vn 0.7424 0.0588 0.6673
vn 0.8684 0.0230 0.4953
vn 0.9538 -0.0138 0.3001
vn 0.9946 -0.0499 0.0908
vn 0.9889 -0.0838 -0.1227
vn 0.9369 -0.1137 -0.3305
vn 0.8412 -0.1383 -0.5228
vn 0.7061 -0.1564 -0.6906
vn 0.5380 -0.1673 -0.8262
vn 0.3447 -0.1703 -0.9231
vn 0.1353 -0.1653 -0.9769
vn 0.2295 0.1395 0.9633
vn 0.1451 0.1473 0.9784
vn 0.0597 0.1541 0.9862
vn -0.0261 0.1598 0.9868
vn -0.1118 0.1643 0.9801
vn -0.1966 0.1675 0.9661
vn -0.2800 0.1695 0.9449
vn -0.3613 0.1703 0.9168
vn -0.4399 0.1698 0.8818
vn -0.5153 0.1681 0.8404
vn -0.5869 0.1651 0.7927
vn -0.6541 0.1608 0.7391
vn -0.7165 0.1554 0.6801
vn -0.7735 0.1489 0.6160
vn -0.7735 0.1488 0.6160
vn -0.8249 0.1412 0.5474
vn -0.8701 0.1325 0.4747
vn -0.9089 0.1228 0.3985
vn -0.9410 0.1122 0.3194
vn -0.9661 0.1007 0.2379
vn -0.9840 0.0886 0.1546
vn -0.9947 0.0757 0.0702
vn -0.9979 0.0623 -0.0147
vn -0.9939 0.0485 -0.0995
vn -0.9824 0.0343 -0.1836
vn -0.9637 0.0198 -0.2664
vn -0.9378 0.0052 -0.3471
vn -0.9050 -0.0095 -0.4253
vn -0.8655 -0.0241 -0.5003
vn -0.8196 -0.0385 -0.5717
vn -0.7676 -0.0526 -0.6388
vn -0.7099 -0.0663 -0.7011
vn -0.6470 -0.0795 -0.7583
vn -0.5793 -0.0922 -0.8099
vn -0.5073 -0.1042 -0.8554
vn -0.4315 -0.1154 -0.8947
vn -0.4316 -0.1154 -0.8947
vn -0.3526 -0.1257 -0.9273
vn -0.2711 -0.1351 -0.9530
vn -0.2710 -0.1351 -0.9530
vn -0.1875 -0.1435 -0.9717
vn -0.1025 -0.1509 -0.9832
vn -0.0168 -0.1571 -0.9874
vn 0.0690 -0.1622 -0.9843
vn 0.1544 -0.1661 -0.9740
vn 0.2386 -0.1687 -0.9564
vn 0.3210 -0.1701 -0.9317
vn 0.4010 -0.1702 -0.9001
vn 0.4781 -0.1691 -0.8619
vn 0.5516 -0.1667 -0.8173
vn 0.6211 -0.1631 -0.7666
vn 0.6859 -0.1583 -0.7103
vn 0.7457 -0.1523 -0.6487
vn 0.7999 -0.1452 -0.5823
vn 0.8483 -0.1370 -0.5115
vn 0.8903 -0.1277 -0.4370
vn 0.9258 -0.1176 -0.3593
vn 0.9544 -0.1066 -0.2789
vn 0.9759 -0.0947 -0.1964
vn 0.9902 -0.0822 -0.1125
vn 0.9972 -0.0691 -0.0278
vn 0.9968 -0.0555 0.0572
vn 0.9890 -0.0414 0.1417
vn 0.9739 -0.0271 0.2252
vn 0.9516 -0.0125 0.3070
vn 0.9223 0.0021 0.3866
vn 0.8861 0.0168 0.4632
vn 0.8433 0.0313 0.5365
vn 0.7943 0.0456 0.6058
vn 0.7395 0.0595 0.6706
vn 0.6791 0.0730 0.7304
vn 0.6137 0.0860 0.7848
vn 0.5438 0.0983 0.8334
vn 0.4699 0.1099 0.8759
vn 0.3924 0.1207 0.9118
vn 0.3924 0.1206 0.9118
vn 0.3121 0.1305 0.9410
vn -0.0639 -0.9854 0.1579
vn -0.0640 -0.9854 0.1579
vn 0.0639 0.9854 -0.1579
vn 0.0640 0.9854 -0.1579
vn 0.0637 0.9854 -0.1579
s 0
f 1//1 2//1 3//1
f 3//1 2//1 4//1
f 3//2 4//2 5//2
f 5//2 4//2 6//2
f 5//3 6//3 7//3
f 7//3 6//3 8//3
f 7//4 8//4 9//4
f 9//4 8//4 10//4
f 9//5 10//5 11//5
f 11//5 10//5 12//5
f 11//6 12//6 13//6
f 13//6 12//6 14//6
f 13//7 14//7 15//7
f 15//7 14//7 16//7
f 15//8 16//8 17//8
f 17//9 16//9 18//9
f 17//10 18//10 19//10
f 19//10 18//10 20//10
f 19//11 20//11 21//11
f 21//11 20//11 22//11
f 21//12 22//12 23//12
f 23//12 22//12 24//12
f 23//13 24//13 25//13
f 25//13 24//13 26//13
f 25//14 26//14 27//14
f 27//14 26//14 28//14
f 27//15 28//15 29//15
f 29//15 28//15 30//15
f 29//16 30//16 31//16
f 31//16 30//16 32//16
f 31//17 32//17 33//17
f 33//17 32//17 34//17
f 33//18 34//18 35//18
f 35//18 34//18 36//18
f 35//19 36//19 37//19
f 37//19 36//19 38//19
f 37//20 38//20 39//20
f 39//20 38//20 40//20
f 39//21 40//21 41//21
f 41//21 40//21 42//21
f 41//22 42//22 43//22
f 43//22 42//22 44//22
f 43//23 44//23 45//23
f 45//23 44//23 46//23
f 45//24 46//24 47//24
f 47//24 46//24 48//24
f 47//25 48//25 49//25
f 49//25 48//25 50//25
f 49//26 50//26 51//26
f 51//26 50//26 52//26
f 51//27 52//27 53//27
f 53//27 52//27 54//27
f 53//28 54//28 55//28
f 55//28 54//28 56//28
f 55//29 56//29 57//29
f 57//29 56//29 58//29
f 57//30 58//30 1//30
f 1//30 58//30 2//30
f 59//31 60//31 61//31
f 61//31 60//31 62//31
f 61//32 62//32 63//32
f 63//32 62//32 64//32
f 63//33 64//33 65//33
f 65//33 64//33 66//33
f 65//34 66//34 67//34
f 67//34 66//34 68//34
f 67//35 68//35 69//35
f 69//35 68//35 70//35
f 69//36 70//36 71//36
f 71//36 70//36 72//36
f 71//37 72//37 73//37
f 73//37 72//37 74//37
f 73//38 74//38 75//38
f 75//38 74//38 76//38
f 75//39 76//39 77//39
f 77//39 76//39 78//39
f 77//40 78//40 79//40
f 79//40 78//40 80//40
f 79//41 80//41 81//41
f 81//41 80//41 82//41
f 81//42 82//42 83//42
f 83//42 82//42 84//42
f 83//43 84//43 85//43
f 85//43 84//43 86//43
f 85//44 86//44 87//44
f 87//45 86//45 88//45
f 87//46 88//46 89//46
f 89//46 88//46 90//46
f 89//47 90//47 91//47
f 91//47 90//47 92//47
f 91//48 92//48 93//48
f 93//48 92//48 94//48
f 93//49 94//49 95//49
f 95//49 94//49 96//49
f 95//50 96//50 97//50
f 97//50 96//50 98//50
f 97//51 98//51 99//51
f 99//51 98//51 100//51
f 99//52 100//52 101//52
f 101//52 100//52 102//52
f 101//53 102//53 103//53
f 103//53 102//53 104//53
f 103//54 104//54 105//54
f 105//54 104//54 106//54
f 105//55 106//55 107//55
f 107//55 106//55 108//55
f 107//56 108//56 109//56
f 109//56 108//56 110//56
f 109//57 110//57 111//57
f 111//57 110//57 112//57
f 111//58 112//58 113//58
f 113//58 112//58 114//58
f 113//59 114//59 115//59
f 115//59 114//59 116//59
f 115//60 116//60 117//60
f 117//60 116//60 118//60
f 117//61 118//61 119//61
f 119//61 118//61 120//61
f 119//62 120//62 121//62
f 121//62 120//62 122//62
f 121//63 122//63 123//63
f 123//63 122//63 124//63
f 123//64 124//64 125//64
f 125//64 124//64 126//64
f 125//65 126//65 127//65
f 127//65 126//65 128//65
f 127//66 128//66 129//66
f 129//67 128//67 130//67
f 129//68 130//68 131//68
f 131//68 130//68 132//68
f 131//69 132//69 133//69
f 133//70 132//70 134//70
f 133//71 134//71 135//71
f 135//71 134//71 136//71
f 135//72 136//72 137//72
f 137//72 136//72 138//72
f 137//73 138//73 139//73
f 139//73 138//73 140//73
f 139//74 140//74 141//74
f 141//74 140//74 142//74
f 141//75 142//75 143//75
f 143//75 142//75 144//75
f 143//76 144//76 145//76
f 145//76 144//76 146//76
f 145//77 146//77 147//77
f 147//77 146//77 148//77
f 147//78 148//78 149//78
f 149//78 148//78 150//78
f 149//79 150//79 151//79
f 151//79 150//79 152//79
f 151//80 152//80 153//80
f 153//80 152//80 154//80
f 153//81 154//81 155//81
f 155//81 154//81 156//81
f 155//82 156//82 157//82
f 157//82 156//82 158//82
f 157//83 158//83 159//83
f 159//83 158//83 160//83
f 159//84 160//84 161//84
f 161//84 160//84 162//84
f 161//85 162//85 163//85
f 163//85 162//85 164//85
f 163//86 164//86 165//86
f 165//86 164//86 166//86
f 165//87 166//87 167//87
f 167//87 166//87 168//87
f 167//88 168//88 169//88
f 169//88 168//88 170//88
f 169//89 170//89 171//89
f 171//89 170//89 172//89
f 171//90 172//90 173//90
f 173//90 172//90 174//90
f 173//91 174//91 175//91
f 175//91 174//91 176//91
f 175//92 176//92 177//92
f 177//92 176//92 178//92
f 177//93 178//93 179//93
f 179//93 178//93 180//93
f 179//94 180//94 181//94
f 181//94 180//94 182//94
f 181//95 182//95 183//95
f 183//95 182//95 184//95
f 183//96 184//96 185//96
f 185//96 184//96 186//96
f 185//97 186//97 187//97
f 187//97 186//97 188//97
f 187//98 188//98 189//98
f 189//98 188//98 190//98
f 189//99 190//99 191//99
f 191//99 190//99 192//99
f 191//100 192//100 193//100
f 193//100 192//100 194//100
f 193//101 194//101 195//101
f 195//101 194//101 196//101
f 195//102 196//102 197//102
f 197//102 196//102 198//102
f 197//103 198//103 199//103
f 199//103 198//103 200//103
f 199//104 200//104 201//104
f 201//104 200//104 202//104
f 201//105 202//105 203//105
f 203//106 202//106 204//106
f 203//107 204//107 59//107
f 59//107 204//107 60//107
f 1//108 3//108 61//108
f 61//108 3//108 5//108
f 61//108 5//108 7//108
f 61//108 7//108 59//108
f 59//108 7//108 9//108
f 59//108 9//108 11//108
f 11//108 13//108 59//108
f 59//108 13//108 15//108
f 59//109 15//109 17//109
f 19//108 169//108 17//108
f 17//108 169//108 171//108
f 17//108 171//108 173//108
f 21//108 165//108 19//108
f 19//108 165//108 167//108
f 19//108 167//108 169//108
f 23//108 159//108 21//108
f 21//108 159//108 161//108
f 21//108 161//108 163//108
f 25//108 155//108 23//108
f 23//108 155//108 157//108
f 23//108 157//108 159//108
f 27//108 149//108 25//108
f 25//108 149//108 151//108
f 25//108 151//108 153//108
f 29//108 145//108 27//108
f 27//108 145//108 147//108
f 27//108 147//108 149//108
f 31//108 139//108 29//108
f 29//108 139//108 141//108
f 29//108 141//108 143//108
f 33//108 133//108 31//108
f 31//108 133//108 135//108
f 31//108 135//108 137//108
f 35//108 129//108 33//108
f 33//108 129//108 131//108
f 33//108 131//108 133//108
f 37//108 123//108 35//108
f 35//108 123//108 125//108
f 35//108 125//108 127//108
f 123//108 37//108 121//108
f 121//108 37//108 39//108
f 121//108 39//108 41//108
f 121//108 41//108 119//108
f 119//108 41//108 43//108
f 119//108 43//108 45//108
f 45//108 47//108 119//108
f 119//108 47//108 75//108
f 119//108 75//108 77//108
f 49//108 65//108 47//108
f 47//108 65//108 67//108
f 47//108 67//108 69//108
f 49//108 51//108 65//108
f 65//108 51//108 53//108
f 65//108 53//108 55//108
f 65//108 55//108 63//108
f 63//108 55//108 57//108
f 63//108 57//108 1//108
f 63//108 1//108 61//108
f 69//108 71//108 47//108
f 47//108 71//108 73//108
f 47//108 73//108 75//108
f 119//108 77//108 117//108
f 117//108 77//108 79//108
f 117//108 79//108 115//108
f 115//108 79//108 81//108
f 115//108 81//108 113//108
f 113//108 81//108 83//108
f 113//108 83//108 111//108
f 111//108 83//108 85//108
f 111//108 85//108 109//108
f 109//108 85//108 87//108
f 109//108 87//108 107//108
f 107//108 87//108 89//108
f 107//108 89//108 105//108
f 105//108 89//108 91//108
f 105//108 91//108 103//108
f 103//108 91//108 93//108
f 103//108 93//108 101//108
f 101//108 93//108 95//108
f 101//108 95//108 99//108
f 99//109 95//109 97//109
f 127//108 129//108 35//108
f 137//108 139//108 31//108
f 143//108 145//108 29//108
f 153//108 155//108 25//108
f 163//108 165//108 21//108
f 173//108 175//108 17//108
f 17//108 175//108 177//108
f 17//108 177//108 179//108
f 179//108 181//108 17//108
f 17//108 181//108 183//108
f 17//108 183//108 185//108
f 185//108 187//108 17//108
f 17//108 187//108 189//108
f 17//108 189//108 191//108
f 191//108 193//108 17//108
f 17//108 193//108 195//108
f 17//108 195//108 197//108
f 197//108 199//108 17//108
f 17//108 199//108 201//108
f 17//108 201//108 203//108
f 203//108 59//108 17//108
f 2//110 64//110 4//110
f 4//110 64//110 62//110
f 4//110 62//110 6//110
f 6//110 62//110 8//110
f 8//110 62//110 60//110
f 8//110 60//110 10//110
f 10//110 60//110 12//110
f 12//110 60//110 14//110
f 14//110 60//110 16//110
f 16//111 60//111 18//111
f 18//110 60//110 204//110
f 18//110 204//110 202//110
f 2//110 58//110 64//110
f 64//110 58//110 56//110
f 64//110 56//110 66//110
f 66//110 56//110 54//110
f 66//110 54//110 52//110
f 52//110 50//110 66//110
f 66//110 50//110 48//110
f 66//110 48//110 68//110
f 68//110 48//110 70//110
f 70//110 48//110 72//110
f 72//110 48//110 74//110
f 74//110 48//110 76//110
f 76//110 48//110 120//110
f 76//110 120//110 78//110
f 78//110 120//110 118//110
f 78//110 118//110 80//110
f 80//110 118//110 116//110
f 80//110 116//110 82//110
f 82//110 116//110 114//110
f 82//110 114//110 84//110
f 84//110 114//110 112//110
f 84//110 112//110 86//110
f 86//110 112//110 110//110
f 86//110 110//110 88//110
f 88//110 110//110 108//110
f 88//110 108//110 90//110
f 90//110 108//110 106//110
f 90//110 106//110 92//110
f 92//110 106//110 104//110
f 92//110 104//110 94//110
f 94//110 104//110 102//110
f 94//110 102//110 96//110
f 96//110 102//110 100//110
f 96//112 100//112 98//112
f 48//110 46//110 120//110
f 120//110 46//110 44//110
f 120//110 44//110 42//110
f 42//110 40//110 120//110
f 120//110 40//110 122//110
f 122//110 40//110 38//110
f 122//110 38//110 124//110
f 124//110 38//110 36//110
f 124//110 36//110 126//110
f 126//110 36//110 128//110
f 128//110 36//110 130//110
f 130//110 36//110 34//110
f 130//110 34//110 132//110
f 132//110 34//110 134//110
f 134//110 34//110 32//110
f 134//110 32//110 136//110
f 136//110 32//110 138//110
f 138//110 32//110 140//110
f 140//110 32//110 30//110
f 140//110 30//110 142//110
f 142//110 30//110 144//110
f 144//110 30//110 146//110
f 146//110 30//110 28//110
f 146//110 28//110 148//110
f 148//110 28//110 150//110
f 150//110 28//110 26//110
f 150//110 26//110 152//110
f 152//110 26//110 154//110
f 154//110 26//110 156//110
f 156//110 26//110 24//110
f 156//110 24//110 158//110
f 158//110 24//110 160//110
f 160//110 24//110 22//110
f 160//110 22//110 162//110
f 162//110 22//110 164//110
f 164//110 22//110 166//110
f 166//110 22//110 20//110
f 166//110 20//110 168//110
f 168//110 20//110 170//110
f 170//110 20//110 18//110
f 170//110 18//110 172//110
f 172//110 18//110 174//110
f 174//110 18//110 176//110
f 176//110 18//110 178//110
f 178//110 18//110 180//110
f 180//110 18//110 182//110
f 182//110 18//110 184//110
f 184//110 18//110 186//110
f 186//110 18//110 188//110
f 188//110 18//110 190//110
f 190//110 18//110 192//110
f 192//110 18//110 194//110
f 194//110 18//110 196//110
f 196//110 18//110 198//110
f 198//110 18//110 200//110
f 200//110 18//110 202//110
