# Blender 5.0.1
# www.blender.org
mtllib wheel2.mtl
o plank_car.wheel2
v -28.382612 -23.977955 -157.532990
v -27.743750 -14.124058 -159.111786
v -27.737329 -24.027012 -157.578064
v -27.098467 -14.173117 -159.156860
v -27.118341 -24.096203 -157.759445
v -26.479479 -14.242308 -159.338242
v -26.554598 -24.182295 -158.068649
v -25.915735 -14.328399 -159.647446
v -26.072456 -24.281261 -158.491241
v -25.433596 -14.427365 -160.070038
v -25.694458 -24.388470 -159.007416
v -25.055595 -14.534575 -160.586212
v -25.438284 -24.498917 -159.593094
v -24.799421 -14.645020 -161.171890
v -25.315908 -24.607430 -160.220856
v -24.677046 -14.753534 -161.799652
v -25.333054 -24.708939 -160.861359
v -24.694191 -14.855042 -162.440140
v -25.488916 -24.798695 -161.484619
v -24.850056 -14.944798 -163.063416
v -25.776217 -24.872503 -162.061554
v -25.137354 -15.018608 -163.640350
v -26.181511 -24.926914 -162.565155
v -25.542648 -15.073017 -164.143951
v -26.685852 -24.959377 -162.971848
v -26.046989 -15.105482 -164.550644
v -27.265659 -24.968384 -163.262680
v -26.626797 -15.114487 -164.841476
v -27.893818 -24.953503 -163.423996
v -27.254955 -15.099607 -165.002792
v -28.540958 -24.915436 -163.448273
v -27.902096 -15.061541 -165.027069
v -29.176821 -24.855963 -163.334381
v -28.537958 -15.002068 -164.913177
v -29.771673 -24.777864 -163.087646
v -29.132812 -14.923968 -164.666428
v -30.297701 -24.684792 -162.719589
v -29.658840 -14.830894 -164.298386
v -30.730305 -24.581093 -162.247421
v -30.091442 -14.727198 -163.826218
v -31.049263 -24.471626 -161.693253
v -30.410400 -14.617729 -163.272049
v -31.239655 -24.361500 -161.082962
v -30.600792 -14.507605 -162.661758
v -31.292578 -24.255869 -160.445099
v -30.653715 -14.401974 -162.023895
v -31.205564 -24.159674 -159.809494
v -30.566704 -14.305779 -161.388290
v -30.982677 -24.077410 -159.205856
v -30.343815 -14.223513 -160.784653
v -30.634338 -24.012920 -158.662399
v -29.995476 -14.159025 -160.241196
v -30.176836 -23.969227 -158.204559
v -29.537975 -14.115331 -159.783356
v -29.631569 -23.948372 -157.853745
v -28.992706 -14.094476 -159.432541
v -29.024021 -23.951326 -157.626343
v -28.385160 -14.097429 -159.205139
v -22.878872 -21.755159 -141.432526
v -22.240009 -11.901262 -143.011322
v -24.550228 -21.586910 -141.058731
v -23.911366 -11.733013 -142.637527
v -26.249342 -21.439915 -140.828827
v -25.610481 -11.586018 -142.407623
v -27.963638 -21.315260 -140.744507
v -27.324776 -11.461363 -142.323303
v -29.680424 -21.213871 -140.806396
v -29.041561 -11.359975 -142.385193
v -31.386984 -21.136497 -141.014038
v -30.748123 -11.282600 -142.592834
v -33.070690 -21.083714 -141.365906
v -32.431828 -11.229816 -142.944702
v -34.719078 -21.055908 -141.859390
v -34.080215 -11.202013 -143.438187
v -36.319931 -21.053286 -142.490814
v -35.681068 -11.199390 -144.069611
v -37.861412 -21.075871 -143.255539
v -37.222549 -11.221975 -144.834335
v -39.332100 -21.123491 -144.147873
v -38.693237 -11.269596 -145.726669
v -40.721107 -21.195799 -145.161224
v -40.082245 -11.341903 -146.740021
v -42.018150 -21.292253 -146.288086
v -41.379288 -11.438356 -147.866882
v -43.213627 -21.412144 -147.520126
v -42.574768 -11.558248 -149.098923
v -44.298691 -21.554583 -148.848221
v -43.659828 -11.700686 -150.427017
v -45.265301 -21.718515 -150.262527
v -44.626442 -11.864618 -151.841324
v -46.106304 -21.902725 -151.752563
v -45.467445 -12.048828 -153.331360
v -46.815475 -22.105852 -153.307327
v -46.176613 -12.251956 -154.886124
v -47.387558 -22.326389 -154.915298
v -46.748699 -12.472493 -156.494080
v -47.818329 -22.562706 -156.564545
v -47.179466 -12.708809 -158.143341
v -48.104588 -22.813051 -158.242889
v -47.465729 -12.959155 -159.821686
v -48.244217 -23.075573 -159.937897
v -47.605354 -13.221677 -161.516693
v -48.236183 -23.348328 -161.637009
v -47.597324 -13.494431 -163.215805
v -48.080551 -23.629295 -163.327667
v -47.441692 -13.775398 -164.906464
v -47.778465 -23.916393 -164.997330
v -47.139606 -14.062497 -166.576126
v -47.332172 -24.207500 -166.633652
v -46.693314 -14.353605 -168.212448
v -46.744965 -24.500458 -168.224503
v -46.106102 -14.646562 -169.803299
v -46.021198 -24.793100 -169.758133
v -45.382336 -14.939203 -171.336914
v -45.166225 -25.083258 -171.223145
v -44.527367 -15.229362 -172.801941
v -44.186378 -25.368782 -172.608734
v -43.547520 -15.514887 -174.187531
v -43.088917 -25.647562 -173.904617
v -42.450054 -15.793665 -175.483414
v -41.881958 -25.917532 -175.101212
v -41.243095 -16.063635 -176.680008
v -40.574440 -26.176693 -176.189636
v -39.935577 -16.322796 -177.768433
v -39.176048 -26.423126 -177.161865
v -38.537186 -16.569229 -178.740662
v -37.697128 -26.655006 -178.010681
v -37.058270 -16.801109 -179.589478
v -36.148640 -26.870621 -178.729813
v -35.509777 -17.016724 -180.308609
v -34.542034 -27.068367 -179.313919
v -33.903172 -17.214470 -180.892715
v -32.889214 -27.246784 -179.758682
v -32.250355 -17.392889 -181.337479
v -31.202417 -27.404552 -180.060822
v -30.563557 -17.550657 -181.639618
v -29.494131 -27.540504 -180.218079
v -28.855268 -17.686607 -181.796875
v -27.777002 -27.653631 -180.229309
v -27.138140 -17.799736 -181.808105
v -26.063742 -27.743095 -180.094421
v -25.424879 -17.889198 -181.673218
v -24.367035 -27.808233 -179.814392
v -23.728172 -17.954338 -181.393188
v -22.699448 -27.848568 -179.391342
v -22.060585 -17.994671 -180.970139
v -21.073322 -27.863794 -178.828369
v -20.434460 -18.009897 -180.407166
v -19.500696 -27.853802 -178.129639
v -18.861835 -17.999907 -179.708435
v -17.993217 -27.818668 -177.300339
v -17.354355 -17.964771 -178.879135
v -16.562046 -27.758648 -176.346619
v -15.923183 -17.904753 -177.925415
v -15.217774 -27.674191 -175.275513
v -14.578913 -17.820293 -176.854309
v -13.970354 -27.565914 -174.094955
v -13.331493 -17.712019 -175.673752
v -12.829031 -27.434631 -172.813721
v -12.190170 -17.580734 -174.392517
v -11.802240 -27.281303 -171.441238
v -11.163380 -17.427406 -173.020035
v -10.897596 -27.107071 -169.987732
v -10.258736 -17.253176 -171.566528
v -10.121790 -26.913221 -168.463913
v -9.482929 -17.059326 -170.042709
v -9.480568 -26.701195 -166.881073
v -8.841707 -16.847298 -168.459869
v -8.978676 -26.472555 -165.250961
v -8.339815 -16.618658 -166.829758
v -8.619833 -26.228998 -163.585617
v -7.980972 -16.375101 -165.164413
v -8.406691 -25.972328 -161.897385
v -7.767830 -16.118431 -163.476181
v -8.340832 -25.704441 -160.198761
v -7.701971 -15.850546 -161.777557
v -8.422739 -25.427324 -158.502289
v -7.783878 -15.573427 -160.081085
v -8.651812 -25.143028 -156.820587
v -8.012951 -15.289132 -158.399384
v -9.026344 -24.853657 -155.166061
v -8.387484 -14.999760 -156.744843
v -9.543577 -24.561354 -153.550964
v -8.904716 -14.707457 -155.129761
v -10.199673 -24.268282 -151.987289
v -9.560810 -14.414385 -153.566086
v -10.989779 -23.976614 -150.486588
v -10.350916 -14.122718 -152.065384
v -11.908037 -23.688505 -149.059952
v -11.269175 -13.834609 -150.638748
v -12.947655 -23.406092 -147.717987
v -12.308792 -13.552196 -149.296783
v -14.100931 -23.131462 -146.470581
v -13.462070 -13.277566 -148.049377
v -15.359337 -22.866653 -145.327026
v -14.720474 -13.012757 -146.905823
v -16.713543 -22.613621 -144.295731
v -16.074680 -12.759724 -145.874527
v -18.153530 -22.374241 -143.384354
v -17.514669 -12.520345 -144.963150
v -19.668640 -22.150288 -142.599670
v -19.029778 -12.296391 -144.178467
v -21.247650 -21.943417 -141.947449
v -20.608788 -12.089520 -143.526245
vn -0.0804 -0.1526 -0.9850
vn -0.2924 -0.1328 -0.9470
vn -0.4906 -0.1067 -0.8648
vn -0.4906 -0.1068 -0.8648
vn -0.6660 -0.0757 -0.7421
vn -0.8102 -0.0412 -0.5847
vn -0.9165 -0.0047 -0.4000
vn -0.9800 0.0320 -0.1966
vn -0.9976 0.0672 0.0161
vn -0.9976 0.0672 0.0160
vn -0.9686 0.0993 0.2279
vn -0.8943 0.1267 0.4291
vn -0.7782 0.1482 0.6103
vn -0.6257 0.1628 0.7629
vn -0.4440 0.1697 0.8798
vn -0.4440 0.1698 0.8798
vn -0.2414 0.1688 0.9556
vn -0.0276 0.1599 0.9867
vn 0.1875 0.1435 0.9717
vn 0.3938 0.1205 0.9113
vn 0.5817 0.0918 0.8082
vn 0.7424 0.0588 0.6673
vn 0.8684 0.0230 0.4953
vn 0.8684 0.0231 0.4953
vn 0.9538 -0.0138 0.3001
vn 0.9538 -0.0138 0.3000
vn 0.9946 -0.0499 0.0908
vn 0.9889 -0.0838 -0.1227
vn 0.9369 -0.1137 -0.3305
vn 0.8412 -0.1383 -0.5228
vn 0.7061 -0.1564 -0.6906
vn 0.5380 -0.1673 -0.8262
vn 0.3447 -0.1703 -0.9231
vn 0.1353 -0.1653 -0.9769
vn 0.2295 0.1395 0.9633
vn 0.1451 0.1473 0.9784
vn 0.0597 0.1541 0.9862
vn -0.0261 0.1598 0.9868
vn -0.1118 0.1643 0.9801
vn -0.1966 0.1675 0.9661
vn -0.2800 0.1695 0.9449
vn -0.3613 0.1703 0.9168
vn -0.4400 0.1698 0.8818
vn -0.5153 0.1681 0.8404
vn -0.5869 0.1651 0.7927
vn -0.6541 0.1608 0.7391
vn -0.7165 0.1554 0.6801
vn -0.7735 0.1489 0.6160
vn -0.7735 0.1488 0.6160
vn -0.8249 0.1412 0.5474
vn -0.8701 0.1325 0.4747
vn -0.9089 0.1228 0.3985
vn -0.9410 0.1122 0.3194
vn -0.9661 0.1007 0.2379
vn -0.9840 0.0886 0.1546
vn -0.9947 0.0757 0.0702
vn -0.9979 0.0623 -0.0147
vn -0.9939 0.0485 -0.0995
vn -0.9824 0.0343 -0.1836
vn -0.9637 0.0198 -0.2664
vn -0.9378 0.0052 -0.3471
vn -0.9050 -0.0095 -0.4253
vn -0.8655 -0.0240 -0.5003
vn -0.8655 -0.0241 -0.5003
vn -0.8196 -0.0385 -0.5717
vn -0.7676 -0.0526 -0.6388
vn -0.7099 -0.0663 -0.7011
vn -0.6470 -0.0795 -0.7583
vn -0.5793 -0.0922 -0.8099
vn -0.5073 -0.1042 -0.8554
vn -0.4316 -0.1154 -0.8947
vn -0.3526 -0.1257 -0.9273
vn -0.2710 -0.1351 -0.9530
vn -0.1875 -0.1435 -0.9717
vn -0.1025 -0.1509 -0.9832
vn -0.0168 -0.1571 -0.9874
vn 0.0690 -0.1622 -0.9843
vn 0.1544 -0.1661 -0.9740
vn 0.2385 -0.1687 -0.9564
vn 0.3210 -0.1701 -0.9317
vn 0.4010 -0.1702 -0.9001
vn 0.4781 -0.1691 -0.8619
vn 0.5516 -0.1667 -0.8173
vn 0.6211 -0.1631 -0.7666
vn 0.6859 -0.1583 -0.7103
vn 0.7457 -0.1523 -0.6487
vn 0.7999 -0.1452 -0.5822
vn 0.8483 -0.1370 -0.5115
vn 0.8903 -0.1277 -0.4370
vn 0.9258 -0.1176 -0.3593
vn 0.9544 -0.1066 -0.2789
vn 0.9759 -0.0947 -0.1964
vn 0.9902 -0.0822 -0.1125
vn 0.9972 -0.0691 -0.0278
vn 0.9968 -0.0555 0.0572
vn 0.9890 -0.0414 0.1417
vn 0.9739 -0.0271 0.2252
vn 0.9516 -0.0125 0.3070
vn 0.9223 0.0021 0.3866
vn 0.8861 0.0168 0.4632
vn 0.8433 0.0313 0.5365
vn 0.7943 0.0456 0.6058
vn 0.7395 0.0595 0.6706
vn 0.6791 0.0730 0.7304
vn 0.6137 0.0860 0.7848
vn 0.5438 0.0983 0.8334
vn 0.4699 0.1099 0.8759
vn 0.3924 0.1207 0.9118
vn 0.3121 0.1305 0.9410
vn -0.0639 -0.9854 0.1579
vn 0.0639 0.9854 -0.1579
s 0
f 1//1 2//1 3//1
f 3//1 2//1 4//1
f 3//2 4//2 5//2
f 5//2 4//2 6//2
f 5//3 6//3 7//3
f 7//4 6//4 8//4
f 7//5 8//5 9//5
f 9//5 8//5 10//5
f 9//6 10//6 11//6
f 11//6 10//6 12//6
f 11//7 12//7 13//7
f 13//7 12//7 14//7
f 13//8 14//8 15//8
f 15//8 14//8 16//8
f 15//9 16//9 17//9
f 17//10 16//10 18//10
f 17//11 18//11 19//11
f 19//11 18//11 20//11
f 19//12 20//12 21//12
f 21//12 20//12 22//12
f 21//13 22//13 23//13
f 23//13 22//13 24//13
f 23//14 24//14 25//14
f 25//14 24//14 26//14
f 25//15 26//15 27//15
f 27//16 26//16 28//16
f 27//17 28//17 29//17
f 29//17 28//17 30//17
f 29//18 30//18 31//18
f 31//18 30//18 32//18
f 31//19 32//19 33//19
f 33//19 32//19 34//19
f 33//20 34//20 35//20
f 35//20 34//20 36//20
f 35//21 36//21 37//21
f 37//21 36//21 38//21
f 37//22 38//22 39//22
f 39//22 38//22 40//22
f 39//23 40//23 41//23
f 41//24 40//24 42//24
f 41//25 42//25 43//25
f 43//26 42//26 44//26
f 43//27 44//27 45//27
f 45//27 44//27 46//27
f 45//28 46//28 47//28
f 47//28 46//28 48//28
f 47//29 48//29 49//29
f 49//29 48//29 50//29
f 49//30 50//30 51//30
f 51//30 50//30 52//30
f 51//31 52//31 53//31
f 53//31 52//31 54//31
f 53//32 54//32 55//32
f 55//32 54//32 56//32
f 55//33 56//33 57//33
f 57//33 56//33 58//33
f 57//34 58//34 1//34
f 1//34 58//34 2//34
f 59//35 60//35 61//35
f 61//35 60//35 62//35
f 61//36 62//36 63//36
f 63//36 62//36 64//36
f 63//37 64//37 65//37
f 65//37 64//37 66//37
f 65//38 66//38 67//38
f 67//38 66//38 68//38
f 67//39 68//39 69//39
f 69//39 68//39 70//39
f 69//40 70//40 71//40
f 71//40 70//40 72//40
f 71//41 72//41 73//41
f 73//41 72//41 74//41
f 73//42 74//42 75//42
f 75//42 74//42 76//42
f 75//43 76//43 77//43
f 77//43 76//43 78//43
f 77//44 78//44 79//44
f 79//44 78//44 80//44
f 79//45 80//45 81//45
f 81//45 80//45 82//45
f 81//46 82//46 83//46
f 83//46 82//46 84//46
f 83//47 84//47 85//47
f 85//47 84//47 86//47
f 85//48 86//48 87//48
f 87//49 86//49 88//49
f 87//50 88//50 89//50
f 89//50 88//50 90//50
f 89//51 90//51 91//51
f 91//51 90//51 92//51
f 91//52 92//52 93//52
f 93//52 92//52 94//52
f 93//53 94//53 95//53
f 95//53 94//53 96//53
f 95//54 96//54 97//54
f 97//54 96//54 98//54
f 97//55 98//55 99//55
f 99//55 98//55 100//55
f 99//56 100//56 101//56
f 101//56 100//56 102//56
f 101//57 102//57 103//57
f 103//57 102//57 104//57
f 103//58 104//58 105//58
f 105//58 104//58 106//58
f 105//59 106//59 107//59
f 107//59 106//59 108//59
f 107//60 108//60 109//60
f 109//60 108//60 110//60
f 109//61 110//61 111//61
f 111//61 110//61 112//61
f 111//62 112//62 113//62
f 113//62 112//62 114//62
f 113//63 114//63 115//63
f 115//64 114//64 116//64
f 115//65 116//65 117//65
f 117//65 116//65 118//65
f 117//66 118//66 119//66
f 119//66 118//66 120//66
f 119//67 120//67 121//67
f 121//67 120//67 122//67
f 121//68 122//68 123//68
f 123//68 122//68 124//68
f 123//69 124//69 125//69
f 125//69 124//69 126//69
f 125//70 126//70 127//70
f 127//70 126//70 128//70
f 127//71 128//71 129//71
f 129//71 128//71 130//71
f 129//72 130//72 131//72
f 131//72 130//72 132//72
f 131//73 132//73 133//73
f 133//73 132//73 134//73
f 133//74 134//74 135//74
f 135//74 134//74 136//74
f 135//75 136//75 137//75
f 137//75 136//75 138//75
f 137//76 138//76 139//76
f 139//76 138//76 140//76
f 139//77 140//77 141//77
f 141//77 140//77 142//77
f 141//78 142//78 143//78
f 143//78 142//78 144//78
f 143//79 144//79 145//79
f 145//79 144//79 146//79
f 145//80 146//80 147//80
f 147//80 146//80 148//80
f 147//81 148//81 149//81
f 149//81 148//81 150//81
f 149//82 150//82 151//82
f 151//82 150//82 152//82
f 151//83 152//83 153//83
f 153//83 152//83 154//83
f 153//84 154//84 155//84
f 155//84 154//84 156//84
f 155//85 156//85 157//85
f 157//85 156//85 158//85
f 157//86 158//86 159//86
f 159//86 158//86 160//86
f 159//87 160//87 161//87
f 161//87 160//87 162//87
f 161//88 162//88 163//88
f 163//88 162//88 164//88
f 163//89 164//89 165//89
f 165//89 164//89 166//89
f 165//90 166//90 167//90
f 167//90 166//90 168//90
f 167//91 168//91 169//91
f 169//91 168//91 170//91
f 169//92 170//92 171//92
f 171//92 170//92 172//92
f 171//93 172//93 173//93
f 173//93 172//93 174//93
f 173//94 174//94 175//94
f 175//94 174//94 176//94
f 175//95 176//95 177//95
f 177//95 176//95 178//95
f 177//96 178//96 179//96
f 179//96 178//96 180//96
f 179//97 180//97 181//97
f 181//97 180//97 182//97
f 181//98 182//98 183//98
f 183//98 182//98 184//98
f 183//99 184//99 185//99
f 185//99 184//99 186//99
f 185//100 186//100 187//100
f 187//100 186//100 188//100
f 187//101 188//101 189//101
f 189//101 188//101 190//101
f 189//102 190//102 191//102
f 191//102 190//102 192//102
f 191//103 192//103 193//103
f 193//103 192//103 194//103
f 193//104 194//104 195//104
f 195//104 194//104 196//104
f 195//105 196//105 197//105
f 197//105 196//105 198//105
f 197//106 198//106 199//106
f 199//106 198//106 200//106
f 199//107 200//107 201//107
f 201//107 200//107 202//107
f 201//108 202//108 203//108
f 203//108 202//108 204//108
f 203//109 204//109 59//109
f 59//109 204//109 60//109
f 1//110 3//110 61//110
f 61//110 3//110 5//110
f 61//110 5//110 7//110
f 61//110 7//110 59//110
f 59//110 7//110 9//110
f 59//110 9//110 11//110
f 11//110 13//110 59//110
f 59//110 13//110 15//110
f 59//110 15//110 17//110
f 19//110 169//110 17//110
f 17//110 169//110 171//110
f 17//110 171//110 173//110
f 21//110 165//110 19//110
f 19//110 165//110 167//110
f 19//110 167//110 169//110
f 23//110 159//110 21//110
f 21//110 159//110 161//110
f 21//110 161//110 163//110
f 25//110 155//110 23//110
f 23//110 155//110 157//110
f 23//110 157//110 159//110
f 27//110 149//110 25//110
f 25//110 149//110 151//110
f 25//110 151//110 153//110
f 29//110 145//110 27//110
f 27//110 145//110 147//110
f 27//110 147//110 149//110
f 31//110 139//110 29//110
f 29//110 139//110 141//110
f 29//110 141//110 143//110
f 33//110 133//110 31//110
f 31//110 133//110 135//110
f 31//110 135//110 137//110
f 35//110 129//110 33//110
f 33//110 129//110 131//110
f 33//110 131//110 133//110
f 37//110 123//110 35//110
f 35//110 123//110 125//110
f 35//110 125//110 127//110
f 123//110 37//110 121//110
f 121//110 37//110 39//110
f 121//110 39//110 41//110
f 121//110 41//110 119//110
f 119//110 41//110 43//110
f 119//110 43//110 45//110
f 45//110 47//110 119//110
f 119//110 47//110 75//110
f 119//110 75//110 77//110
f 49//110 65//110 47//110
f 47//110 65//110 67//110
f 47//110 67//110 69//110
f 49//110 51//110 65//110
f 65//110 51//110 53//110
f 65//110 53//110 55//110
f 65//110 55//110 63//110
f 63//110 55//110 57//110
f 63//110 57//110 1//110
f 63//110 1//110 61//110
f 69//110 71//110 47//110
f 47//110 71//110 73//110
f 47//110 73//110 75//110
f 119//110 77//110 117//110
f 117//110 77//110 79//110
f 117//110 79//110 115//110
f 115//110 79//110 81//110
f 115//110 81//110 113//110
f 113//110 81//110 83//110
f 113//110 83//110 111//110
f 111//110 83//110 85//110
f 111//110 85//110 109//110
f 109//110 85//110 87//110
f 109//110 87//110 107//110
f 107//110 87//110 89//110
f 107//110 89//110 105//110
f 105//110 89//110 91//110
f 105//110 91//110 103//110
f 103//110 91//110 93//110
f 103//110 93//110 101//110
f 101//110 93//110 95//110
f 101//110 95//110 99//110
f 99//110 95//110 97//110
f 127//110 129//110 35//110
f 137//110 139//110 31//110
f 143//110 145//110 29//110
f 153//110 155//110 25//110
f 163//110 165//110 21//110
f 173//110 175//110 17//110
f 17//110 175//110 177//110
f 17//110 177//110 179//110
f 179//110 181//110 17//110
f 17//110 181//110 183//110
f 17//110 183//110 185//110
f 185//110 187//110 17//110
f 17//110 187//110 189//110
f 17//110 189//110 191//110
f 191//110 193//110 17//110
f 17//110 193//110 195//110
f 17//110 195//110 197//110
f 197//110 199//110 17//110
f 17//110 199//110 201//110
f 17//110 201//110 203//110
f 203//110 59//110 17//110
f 2//111 64//111 4//111
f 4//111 64//111 62//111
f 4//111 62//111 6//111
f 6//111 62//111 8//111
f 8//111 62//111 60//111
f 8//111 60//111 10//111
f 10//111 60//111 12//111
f 12//111 60//111 14//111
f 14//111 60//111 16//111
f 16//111 60//111 18//111
f 18//111 60//111 204//111
f 18//111 204//111 202//111
f 2//111 58//111 64//111
f 64//111 58//111 56//111
f 64//111 56//111 66//111
f 66//111 56//111 54//111
f 66//111 54//111 52//111
f 52//111 50//111 66//111
f 66//111 50//111 48//111
f 66//111 48//111 68//111
f 68//111 48//111 70//111
f 70//111 48//111 72//111
f 72//111 48//111 74//111
f 74//111 48//111 76//111
f 76//111 48//111 120//111
f 76//111 120//111 78//111
f 78//111 120//111 118//111
f 78//111 118//111 80//111
f 80//111 118//111 116//111
f 80//111 116//111 82//111
f 82//111 116//111 114//111
f 82//111 114//111 84//111
f 84//111 114//111 112//111
f 84//111 112//111 86//111
f 86//111 112//111 110//111
f 86//111 110//111 88//111
f 88//111 110//111 108//111
f 88//111 108//111 90//111
f 90//111 108//111 106//111
f 90//111 106//111 92//111
f 92//111 106//111 104//111
f 92//111 104//111 94//111
f 94//111 104//111 102//111
f 94//111 102//111 96//111
f 96//111 102//111 100//111
f 96//111 100//111 98//111
f 48//111 46//111 120//111
f 120//111 46//111 44//111
f 120//111 44//111 42//111
f 42//111 40//111 120//111
f 120//111 40//111 122//111
f 122//111 40//111 38//111
f 122//111 38//111 124//111
f 124//111 38//111 36//111
f 124//111 36//111 126//111
f 126//111 36//111 128//111
f 128//111 36//111 130//111
f 130//111 36//111 34//111
f 130//111 34//111 132//111
f 132//111 34//111 134//111
f 134//111 34//111 32//111
f 134//111 32//111 136//111
f 136//111 32//111 138//111
f 138//111 32//111 140//111
f 140//111 32//111 30//111
f 140//111 30//111 142//111
f 142//111 30//111 144//111
f 144//111 30//111 146//111
f 146//111 30//111 28//111
f 146//111 28//111 148//111
f 148//111 28//111 150//111
f 150//111 28//111 26//111
f 150//111 26//111 152//111
f 152//111 26//111 154//111
f 154//111 26//111 156//111
f 156//111 26//111 24//111
f 156//111 24//111 158//111
f 158//111 24//111 160//111
f 160//111 24//111 22//111
f 160//111 22//111 162//111
f 162//111 22//111 164//111
f 164//111 22//111 166//111
f 166//111 22//111 20//111
f 166//111 20//111 168//111
f 168//111 20//111 170//111
f 170//111 20//111 18//111
f 170//111 18//111 172//111
f 172//111 18//111 174//111
f 174//111 18//111 176//111
f 176//111 18//111 178//111
f 178//111 18//111 180//111
f 180//111 18//111 182//111
f 182//111 18//111 184//111
f 184//111 18//111 186//111
f 186//111 18//111 188//111
f 188//111 18//111 190//111
f 190//111 18//111 192//111
f 192//111 18//111 194//111
f 194//111 18//111 196//111
f 196//111 18//111 198//111
f 198//111 18//111 200//111
f 200//111 18//111 202//111
